<?xml version="1.0" encoding="UTF-8"?><svg id="Capa_2" xmlns="http://www.w3.org/2000/svg" viewBox="0 0 180 121.14"><defs><style>.cls-1{fill:#fff;}.cls-1,.cls-2{stroke:#000;stroke-miterlimit:10;stroke-width:4px;}.cls-2{fill:#e5ff5b;}</style></defs><g id="Capa_1-2"><path class="cls-2" d="M114.55,2h63.45v5c0,29.6-24.03,53.62-53.62,53.62h-63.45v-5c0-29.6,24.03-53.62,53.62-53.62Z" transform="translate(238.93 62.62) rotate(180)"/><path class="cls-1" d="M32.21,30.73h62.8c29.6,0,53.62,24.03,53.62,53.62v5.33h-62.8c-29.6,0-53.62-24.03-53.62-53.62v-5.33h0Z" transform="translate(30.21 150.63) rotate(-90)"/><path class="cls-2" d="M60.93,60.51h63.45c29.6,0,53.62,24.03,53.62,53.62v5h-63.45c-29.6,0-53.62-24.03-53.62-53.62v-5h0Z"/><path class="cls-1" d="M26.89,30.73h62.8v5.33c0,29.6-24.03,53.62-53.62,53.62H-26.73v-5.33c0-29.6,24.03-53.62,53.62-53.62Z" transform="translate(91.69 28.73) rotate(90)"/></g></svg>