<svg width="190" height="64" viewBox="0 0 190 64" fill="none" xmlns="http://www.w3.org/2000/svg">
<path d="M62.1851 32.31L30.4601 32.31V29.81C30.4601 15.01 42.4751 3 57.2701 3L88.9951 3V5.5C88.9951 20.3 76.9801 32.31 62.1851 32.31Z" fill="#E5FF5B" stroke="black" stroke-width="2" stroke-miterlimit="10"/>
<path d="M30.4648 61.21L30.4648 29.81C30.4648 15.01 42.4798 3.00002 57.2748 3.00002H59.9398V34.4C59.9398 49.2 47.9248 61.21 33.1298 61.21H30.4648Z" fill="white" stroke="black" stroke-width="2" stroke-miterlimit="10"/>
<path d="M30.46 32.255H62.185C76.985 32.255 88.995 44.27 88.995 59.065V61.565H57.27C42.47 61.565 30.46 49.55 30.46 34.755V32.255Z" fill="#E5FF5B" stroke="black" stroke-width="2" stroke-miterlimit="10"/>
<path d="M30.4751 29.81L30.4751 61.21H27.8101C13.0101 61.21 1.0001 49.195 1.0001 34.4L1.0001 3H3.6651C18.4651 3 30.4751 15.015 30.4751 29.81Z" fill="white" stroke="black" stroke-width="2" stroke-miterlimit="10"/>
<path d="M106.49 44L103.697 34.7578H105.665L107.232 40.7944L107.391 41.4165L107.562 40.7881L109.137 34.7578H111.104L108.305 44H106.49ZM116.684 42.0703H113.91L113.364 44H111.485L114.513 34.7578H116.132L119.103 44H117.224L116.684 42.0703ZM114.348 40.5532H116.265L115.319 37.1509L114.348 40.5532ZM121.857 42.5591H126.187V44H120.067V34.7578H121.857V42.5591ZM133.442 39.9502H129.646V42.5591H134.083V44H127.856V34.7578H134.064V36.2114H129.646V38.541H133.442V39.9502ZM141.656 44H139.878L137.308 38.0396V44H135.511V34.7578H137.308L139.859 40.6929L139.866 34.7578H141.656V44ZM150.162 36.2114H147.312V44H145.521V36.2114H142.709V34.7578H150.162V36.2114ZM151.571 34.7578H156.916V36.1987H155.113V42.5654H156.916V44H151.571V42.5654H153.329V36.1987H151.571V34.7578ZM165.079 44H163.301L160.73 38.0396V44H158.934V34.7578H160.73L163.282 40.6929L163.289 34.7578H165.079V44ZM171.337 42.0703H168.563L168.018 44H166.139L169.167 34.7578H170.785L173.756 44H171.877L171.337 42.0703ZM169.001 40.5532H170.918L169.973 37.1509L169.001 40.5532ZM110.749 58.1055C110.719 58.571 110.618 58.9899 110.444 59.3623C110.275 59.7347 110.047 60.0521 109.759 60.3145C109.471 60.5768 109.128 60.7799 108.73 60.9238C108.333 61.0635 107.893 61.1333 107.41 61.1333C107.029 61.1333 106.676 61.0846 106.35 60.9873C106.028 60.8857 105.739 60.7419 105.48 60.5557C105.243 60.3822 105.032 60.1727 104.846 59.9272C104.664 59.6818 104.509 59.411 104.382 59.1147C104.26 58.8185 104.164 58.4927 104.097 58.1372C104.033 57.7817 104.001 57.4051 104.001 57.0073V55.7632C104.001 55.3908 104.031 55.0374 104.09 54.7031C104.15 54.3646 104.238 54.0514 104.357 53.7637C104.492 53.4124 104.67 53.0993 104.89 52.8242C105.11 52.5492 105.36 52.3164 105.639 52.126C105.889 51.9652 106.162 51.8424 106.458 51.7578C106.758 51.6689 107.08 51.6245 107.423 51.6245C107.931 51.6245 108.381 51.6965 108.775 51.8403C109.173 51.9842 109.511 52.1895 109.791 52.4561C110.07 52.7227 110.29 53.0485 110.451 53.4336C110.611 53.8187 110.713 54.2524 110.755 54.7349H108.978C108.961 54.4598 108.919 54.2186 108.851 54.0112C108.788 53.8039 108.694 53.6304 108.572 53.4907C108.445 53.3553 108.286 53.2537 108.096 53.186C107.91 53.1141 107.685 53.0781 107.423 53.0781C107.283 53.0781 107.152 53.0929 107.029 53.1226C106.911 53.1522 106.801 53.1966 106.699 53.2559C106.526 53.3574 106.378 53.5034 106.255 53.6938C106.136 53.88 106.041 54.098 105.969 54.3477C105.914 54.5423 105.874 54.7581 105.849 54.9951C105.823 55.2279 105.811 55.4797 105.811 55.7505V57.0073C105.811 57.3755 105.83 57.7056 105.868 57.9976C105.91 58.2853 105.973 58.5371 106.058 58.7529C106.117 58.901 106.187 59.0322 106.268 59.1465C106.352 59.2607 106.447 59.356 106.553 59.4321C106.667 59.5168 106.794 59.5802 106.934 59.6226C107.078 59.6606 107.237 59.6797 107.41 59.6797C107.643 59.6797 107.852 59.6501 108.039 59.5908C108.225 59.5316 108.383 59.4385 108.515 59.3115C108.646 59.1846 108.75 59.0216 108.826 58.8228C108.902 58.6239 108.948 58.3848 108.965 58.1055H110.749ZM116.684 59.0703H113.91L113.364 61H111.485L114.513 51.7578H116.132L119.103 61H117.224L116.684 59.0703ZM114.348 57.5532H116.265L115.319 54.1509L114.348 57.5532ZM124.746 58.5879C124.746 58.4229 124.716 58.2684 124.657 58.1245C124.602 57.9806 124.507 57.8452 124.371 57.7183C124.231 57.5955 124.049 57.4834 123.825 57.3818C123.605 57.276 123.33 57.1787 123 57.0898C122.488 56.9502 122.037 56.7809 121.648 56.582C121.263 56.3831 120.948 56.1652 120.702 55.9282C120.457 55.6912 120.271 55.4289 120.144 55.1411C120.021 54.8534 119.959 54.5402 119.959 54.2017C119.959 53.8123 120.042 53.459 120.207 53.1416C120.372 52.8242 120.601 52.5534 120.893 52.3291C121.185 52.1048 121.529 51.9334 121.927 51.8149C122.325 51.6922 122.757 51.6309 123.222 51.6309C123.705 51.6309 124.145 51.7007 124.542 51.8403C124.944 51.98 125.289 52.1746 125.577 52.4243C125.865 52.6782 126.089 52.9787 126.25 53.3257C126.411 53.6727 126.491 54.0535 126.491 54.4683H124.752C124.743 54.2609 124.705 54.0705 124.638 53.897C124.574 53.7235 124.479 53.5732 124.352 53.4463C124.221 53.3236 124.058 53.2284 123.863 53.1606C123.673 53.0887 123.449 53.0527 123.19 53.0527C122.953 53.0527 122.742 53.0824 122.556 53.1416C122.374 53.1966 122.219 53.2749 122.092 53.3765C121.965 53.4823 121.868 53.6071 121.8 53.751C121.737 53.8906 121.705 54.043 121.705 54.208C121.705 54.3815 121.747 54.5381 121.832 54.6777C121.921 54.8174 122.048 54.9422 122.213 55.0522C122.378 55.1665 122.577 55.2702 122.81 55.3633C123.047 55.4564 123.313 55.5431 123.609 55.6235C123.927 55.7124 124.229 55.8203 124.517 55.9473C124.805 56.0742 125.069 56.2202 125.311 56.3853C125.674 56.6561 125.964 56.9714 126.18 57.3311C126.396 57.6908 126.504 58.1055 126.504 58.5752C126.504 58.9814 126.421 59.3433 126.256 59.6606C126.096 59.9738 125.871 60.2383 125.583 60.4541C125.296 60.6742 124.953 60.8413 124.555 60.9556C124.157 61.0656 123.724 61.1206 123.254 61.1206C122.793 61.1206 122.336 61.0529 121.883 60.9175C121.434 60.7778 121.043 60.5747 120.708 60.3081C120.391 60.0457 120.139 59.7368 119.953 59.3813C119.771 59.0259 119.68 58.609 119.68 58.1309H121.432C121.441 58.4102 121.489 58.6493 121.578 58.8481C121.667 59.047 121.792 59.21 121.953 59.3369C122.109 59.4639 122.298 59.557 122.518 59.6162C122.742 59.6755 122.987 59.7051 123.254 59.7051C123.491 59.7051 123.7 59.6776 123.882 59.6226C124.069 59.5675 124.225 59.4914 124.352 59.394C124.479 59.2967 124.576 59.1803 124.644 59.0449C124.712 58.9053 124.746 58.7529 124.746 58.5879ZM134.546 53.2114H131.696V61H129.906V53.2114H127.094V51.7578H134.546V53.2114ZM141.25 56.9502H137.454V59.5591H141.891V61H135.664V51.7578H141.872V53.2114H137.454V55.541H141.25V56.9502ZM145.28 59.5591H149.609V61H143.49V51.7578H145.28V59.5591ZM153.088 59.5591H157.417V61H151.298V51.7578H153.088V59.5591ZM163.53 59.0703H160.756L160.21 61H158.331L161.359 51.7578H162.978L165.948 61H164.069L163.53 59.0703ZM161.194 57.5532H163.111L162.165 54.1509L161.194 57.5532ZM172.886 61H171.109L168.538 55.0396V61H166.742V51.7578H168.538L171.09 57.6929L171.096 51.7578H172.886V61ZM181.049 57.0581C181.049 57.4559 181.013 57.8346 180.941 58.1943C180.869 58.5498 180.766 58.8799 180.63 59.1846C180.486 59.4893 180.309 59.7686 180.097 60.0225C179.886 60.2764 179.644 60.488 179.374 60.6572C179.128 60.8053 178.857 60.9196 178.561 61C178.269 61.0846 177.954 61.127 177.615 61.127C177.256 61.127 176.923 61.0804 176.619 60.9873C176.314 60.8942 176.037 60.763 175.787 60.5938C175.542 60.416 175.322 60.2023 175.127 59.9526C174.932 59.6987 174.769 59.4131 174.638 59.0957C174.52 58.8037 174.429 58.4863 174.365 58.1436C174.306 57.8008 174.276 57.439 174.276 57.0581V55.7124C174.276 55.3062 174.31 54.9211 174.378 54.5571C174.45 54.1932 174.554 53.8568 174.689 53.5479C174.82 53.2559 174.979 52.9914 175.165 52.7544C175.355 52.5174 175.573 52.3143 175.819 52.145C176.06 51.98 176.331 51.853 176.631 51.7642C176.932 51.6753 177.258 51.6309 177.609 51.6309C177.964 51.6309 178.297 51.6774 178.605 51.7705C178.919 51.8594 179.2 51.9884 179.45 52.1577C179.699 52.3185 179.917 52.5132 180.104 52.7417C180.294 52.9702 180.457 53.222 180.592 53.4971C180.74 53.8102 180.853 54.153 180.929 54.5254C181.009 54.8978 181.049 55.2935 181.049 55.7124V57.0581ZM179.24 55.6997C179.24 55.4627 179.228 55.2384 179.202 55.0269C179.181 54.811 179.145 54.6121 179.094 54.4302C179.031 54.2017 178.946 53.9985 178.84 53.8208C178.735 53.6388 178.61 53.4907 178.466 53.3765C178.352 53.2918 178.222 53.2262 178.079 53.1797C177.939 53.1331 177.782 53.1099 177.609 53.1099C177.444 53.1099 177.294 53.131 177.158 53.1733C177.027 53.2157 176.909 53.277 176.803 53.3574C176.659 53.4759 176.536 53.624 176.435 53.8018C176.337 53.9795 176.261 54.1868 176.206 54.4238C176.164 54.6058 176.132 54.8047 176.111 55.0205C176.094 55.2363 176.085 55.4627 176.085 55.6997V57.0581C176.085 57.2824 176.094 57.4982 176.111 57.7056C176.128 57.9129 176.157 58.1055 176.2 58.2832C176.246 58.5075 176.314 58.7127 176.403 58.8989C176.496 59.0809 176.604 59.229 176.727 59.3433C176.841 59.4448 176.97 59.5231 177.114 59.5781C177.262 59.6331 177.429 59.6606 177.615 59.6606C177.793 59.6606 177.956 59.6353 178.104 59.5845C178.252 59.5337 178.383 59.4596 178.498 59.3623C178.641 59.2438 178.762 59.0957 178.859 58.918C178.961 58.736 179.041 58.5308 179.101 58.3022C179.147 58.1245 179.181 57.9299 179.202 57.7183C179.228 57.5067 179.24 57.2866 179.24 57.0581V55.6997ZM187.207 58.5879C187.207 58.4229 187.177 58.2684 187.118 58.1245C187.063 57.9806 186.967 57.8452 186.832 57.7183C186.692 57.5955 186.51 57.4834 186.286 57.3818C186.066 57.276 185.791 57.1787 185.461 57.0898C184.949 56.9502 184.498 56.7809 184.109 56.582C183.724 56.3831 183.409 56.1652 183.163 55.9282C182.918 55.6912 182.731 55.4289 182.604 55.1411C182.482 54.8534 182.42 54.5402 182.42 54.2017C182.42 53.8123 182.503 53.459 182.668 53.1416C182.833 52.8242 183.062 52.5534 183.354 52.3291C183.646 52.1048 183.99 51.9334 184.388 51.8149C184.786 51.6922 185.218 51.6309 185.683 51.6309C186.166 51.6309 186.606 51.7007 187.003 51.8403C187.405 51.98 187.75 52.1746 188.038 52.4243C188.326 52.6782 188.55 52.9787 188.711 53.3257C188.872 53.6727 188.952 54.0535 188.952 54.4683H187.213C187.204 54.2609 187.166 54.0705 187.099 53.897C187.035 53.7235 186.94 53.5732 186.813 53.4463C186.682 53.3236 186.519 53.2284 186.324 53.1606C186.134 53.0887 185.91 53.0527 185.651 53.0527C185.414 53.0527 185.203 53.0824 185.017 53.1416C184.835 53.1966 184.68 53.2749 184.553 53.3765C184.426 53.4823 184.329 53.6071 184.261 53.751C184.198 53.8906 184.166 54.043 184.166 54.208C184.166 54.3815 184.208 54.5381 184.293 54.6777C184.382 54.8174 184.509 54.9422 184.674 55.0522C184.839 55.1665 185.038 55.2702 185.271 55.3633C185.507 55.4564 185.774 55.5431 186.07 55.6235C186.388 55.7124 186.69 55.8203 186.978 55.9473C187.266 56.0742 187.53 56.2202 187.771 56.3853C188.135 56.6561 188.425 56.9714 188.641 57.3311C188.857 57.6908 188.965 58.1055 188.965 58.5752C188.965 58.9814 188.882 59.3433 188.717 59.6606C188.556 59.9738 188.332 60.2383 188.044 60.4541C187.757 60.6742 187.414 60.8413 187.016 60.9556C186.618 61.0656 186.185 61.1206 185.715 61.1206C185.254 61.1206 184.797 61.0529 184.344 60.9175C183.895 60.7778 183.504 60.5747 183.169 60.3081C182.852 60.0457 182.6 59.7368 182.414 59.3813C182.232 59.0259 182.141 58.609 182.141 58.1309H183.893C183.902 58.4102 183.95 58.6493 184.039 58.8481C184.128 59.047 184.253 59.21 184.414 59.3369C184.57 59.4639 184.758 59.557 184.979 59.6162C185.203 59.6755 185.448 59.7051 185.715 59.7051C185.952 59.7051 186.161 59.6776 186.343 59.6226C186.529 59.5675 186.686 59.4914 186.813 59.394C186.94 59.2967 187.037 59.1803 187.105 59.0449C187.173 58.9053 187.207 58.7529 187.207 58.5879Z" fill="white"/>
<path d="M104.293 14V4.75781H106.687C107.114 4.75781 107.514 4.81071 107.886 4.9165C108.259 5.01807 108.597 5.16406 108.902 5.35449C109.168 5.51107 109.405 5.70361 109.613 5.93213C109.824 6.15641 110.008 6.40186 110.165 6.66846C110.347 6.9943 110.487 7.354 110.584 7.74756C110.686 8.14111 110.736 8.56006 110.736 9.00439V9.76611C110.736 10.1935 110.69 10.5977 110.597 10.9785C110.504 11.3594 110.372 11.7085 110.203 12.0259C110.042 12.3094 109.854 12.5718 109.638 12.813C109.422 13.05 109.185 13.2489 108.927 13.4097C108.627 13.6001 108.295 13.7461 107.931 13.8477C107.571 13.9492 107.186 14 106.775 14H104.293ZM106.09 6.20508V12.5654H106.775C106.995 12.5654 107.201 12.5379 107.391 12.4829C107.582 12.4279 107.755 12.3475 107.912 12.2417C108.072 12.1317 108.216 11.992 108.343 11.8228C108.474 11.6493 108.587 11.4482 108.68 11.2197C108.756 11.0208 108.813 10.8008 108.851 10.5596C108.893 10.3141 108.915 10.0496 108.915 9.76611V8.9917C108.915 8.7251 108.893 8.47331 108.851 8.23633C108.813 7.99512 108.756 7.77507 108.68 7.57617C108.587 7.33919 108.464 7.1276 108.312 6.94141C108.163 6.75521 107.99 6.60286 107.791 6.48438C107.639 6.39551 107.469 6.3278 107.283 6.28125C107.101 6.23047 106.902 6.20508 106.687 6.20508H106.09ZM117.827 9.9502H114.031V12.5591H118.468V14H112.241V4.75781H118.449V6.21143H114.031V8.54102H117.827V9.9502ZM124.746 11.5879C124.746 11.4229 124.716 11.2684 124.657 11.1245C124.602 10.9806 124.507 10.8452 124.371 10.7183C124.231 10.5955 124.049 10.4834 123.825 10.3818C123.605 10.276 123.33 10.1787 123 10.0898C122.488 9.9502 122.037 9.78092 121.648 9.58203C121.263 9.38314 120.948 9.1652 120.702 8.92822C120.457 8.69124 120.271 8.42887 120.144 8.14111C120.021 7.85335 119.959 7.5402 119.959 7.20166C119.959 6.81234 120.042 6.45898 120.207 6.1416C120.372 5.82422 120.601 5.55339 120.893 5.3291C121.185 5.10482 121.529 4.93343 121.927 4.81494C122.325 4.69222 122.757 4.63086 123.222 4.63086C123.705 4.63086 124.145 4.70068 124.542 4.84033C124.944 4.97998 125.289 5.17464 125.577 5.42432C125.865 5.67822 126.089 5.97868 126.25 6.32568C126.411 6.67269 126.491 7.05355 126.491 7.46826H124.752C124.743 7.2609 124.705 7.07048 124.638 6.89697C124.574 6.72347 124.479 6.57324 124.352 6.44629C124.221 6.32357 124.058 6.22835 123.863 6.16064C123.673 6.0887 123.449 6.05273 123.19 6.05273C122.953 6.05273 122.742 6.08236 122.556 6.1416C122.374 6.19661 122.219 6.2749 122.092 6.37646C121.965 6.48226 121.868 6.6071 121.8 6.75098C121.737 6.89062 121.705 7.04297 121.705 7.20801C121.705 7.38151 121.747 7.53809 121.832 7.67773C121.921 7.81738 122.048 7.94222 122.213 8.05225C122.378 8.1665 122.577 8.27018 122.81 8.36328C123.047 8.45638 123.313 8.54313 123.609 8.62354C123.927 8.7124 124.229 8.82031 124.517 8.94727C124.805 9.07422 125.069 9.22021 125.311 9.38525C125.674 9.65609 125.964 9.97135 126.18 10.3311C126.396 10.6908 126.504 11.1055 126.504 11.5752C126.504 11.9814 126.421 12.3433 126.256 12.6606C126.096 12.9738 125.871 13.2383 125.583 13.4541C125.296 13.6742 124.953 13.8413 124.555 13.9556C124.157 14.0656 123.724 14.1206 123.254 14.1206C122.793 14.1206 122.336 14.0529 121.883 13.9175C121.434 13.7778 121.043 13.5747 120.708 13.3081C120.391 13.0457 120.139 12.7368 119.953 12.3813C119.771 12.0259 119.68 11.609 119.68 11.1309H121.432C121.441 11.4102 121.489 11.6493 121.578 11.8481C121.667 12.047 121.792 12.21 121.953 12.3369C122.109 12.4639 122.298 12.557 122.518 12.6162C122.742 12.6755 122.987 12.7051 123.254 12.7051C123.491 12.7051 123.7 12.6776 123.882 12.6226C124.069 12.5675 124.225 12.4914 124.352 12.394C124.479 12.2967 124.576 12.1803 124.644 12.0449C124.712 11.9053 124.746 11.7529 124.746 11.5879ZM128.148 4.75781H133.493V6.19873H131.69V12.5654H133.493V14H128.148V12.5654H129.906V6.19873H128.148V4.75781ZM141.916 12.9209C141.802 13.0605 141.645 13.2023 141.446 13.3462C141.247 13.4901 141.013 13.6191 140.742 13.7334C140.467 13.8519 140.16 13.9471 139.821 14.019C139.483 14.091 139.119 14.127 138.729 14.127C138.391 14.127 138.071 14.0868 137.771 14.0063C137.475 13.9302 137.202 13.818 136.952 13.6699C136.707 13.5176 136.482 13.3314 136.279 13.1113C136.08 12.8913 135.911 12.6395 135.771 12.356C135.611 12.0428 135.488 11.6895 135.403 11.2959C135.323 10.9023 135.283 10.4749 135.283 10.0137V8.75684C135.283 8.31673 135.323 7.90837 135.403 7.53174C135.484 7.15088 135.598 6.80599 135.746 6.49707C135.886 6.22201 136.047 5.97445 136.229 5.75439C136.415 5.53434 136.618 5.34391 136.838 5.18311C137.096 5.00114 137.377 4.86361 137.682 4.77051C137.987 4.67741 138.308 4.63086 138.647 4.63086C139.167 4.63086 139.62 4.69645 140.005 4.82764C140.395 4.95882 140.723 5.14714 140.989 5.39258C141.256 5.64225 141.463 5.94482 141.611 6.30029C141.764 6.65576 141.863 7.05566 141.91 7.5H140.17C140.141 7.27572 140.094 7.07682 140.031 6.90332C139.972 6.72982 139.889 6.58382 139.783 6.46533C139.665 6.33415 139.514 6.23682 139.333 6.17334C139.155 6.10563 138.941 6.07178 138.691 6.07178C138.556 6.07178 138.425 6.09294 138.298 6.13525C138.171 6.17757 138.052 6.23893 137.942 6.31934C137.799 6.42936 137.667 6.57324 137.549 6.75098C137.435 6.92871 137.339 7.13818 137.263 7.37939C137.204 7.56559 137.157 7.77295 137.124 8.00146C137.094 8.22998 137.079 8.47754 137.079 8.74414V10.0137C137.079 10.348 137.1 10.6527 137.143 10.9277C137.189 11.2028 137.253 11.4461 137.333 11.6577C137.384 11.7804 137.441 11.8947 137.504 12.0005C137.572 12.1021 137.646 12.193 137.727 12.2734C137.862 12.4089 138.019 12.5125 138.196 12.5845C138.378 12.6522 138.583 12.6882 138.812 12.6924C138.952 12.6924 139.089 12.6818 139.225 12.6606C139.36 12.6395 139.487 12.6099 139.605 12.5718C139.724 12.5337 139.828 12.4914 139.917 12.4448C140.01 12.394 140.079 12.3411 140.126 12.2861L140.132 10.6104H138.603V9.27734H141.91L141.916 12.9209ZM149.463 14H147.686L145.115 8.03955V14H143.319V4.75781H145.115L147.667 10.6929L147.673 4.75781H149.463V14ZM156.865 9.9502H153.069V12.5591H157.506V14H151.279V4.75781H157.487V6.21143H153.069V8.54102H156.865V9.9502ZM162.121 10.5469H160.769V14H158.985V4.75781H162.083C162.595 4.75781 163.058 4.81917 163.473 4.94189C163.887 5.06038 164.243 5.236 164.539 5.46875C164.831 5.7015 165.055 5.99137 165.212 6.33838C165.373 6.68538 165.453 7.0874 165.453 7.54443C165.453 7.87451 165.413 8.17285 165.333 8.43945C165.256 8.70182 165.146 8.93669 165.002 9.14404C164.854 9.35563 164.677 9.53971 164.469 9.69629C164.266 9.85286 164.038 9.98828 163.784 10.1025L165.771 13.9175V14H163.86L162.121 10.5469ZM160.769 9.09961H162.089C162.364 9.09961 162.605 9.06152 162.812 8.98535C163.024 8.90495 163.195 8.79069 163.327 8.64258C163.437 8.52409 163.519 8.38232 163.574 8.21729C163.633 8.05225 163.663 7.86816 163.663 7.66504C163.663 7.4196 163.625 7.20378 163.549 7.01758C163.477 6.82715 163.367 6.67057 163.219 6.54785C163.088 6.43783 162.927 6.35319 162.736 6.29395C162.546 6.2347 162.328 6.20508 162.083 6.20508H160.769V9.09961Z" fill="#E5FF5B"/>
</svg>
